<svg viewBox="0 0 24 24" xmlns="http://www.w3.org/2000/svg" id="Allowances-No-Umbrellas--Streamline-Ultimate">
  <desc>
    Allowances No Umbrellas Streamline Icon: https://streamlinehq.com
  </desc>
  <path d="m12 3.75 0 1.5" fill="none" stroke="#000000" stroke-linecap="round" stroke-linejoin="round" stroke-width="1.5"></path>
  <path d="M0.75 12a11.25 11.25 0 1 0 22.5 0 11.25 11.25 0 1 0 -22.5 0Z" fill="none" stroke="#000000" stroke-linecap="round" stroke-linejoin="round" stroke-width="1.5"></path>
  <path d="m4.045 4.046 15.91 15.909" fill="none" stroke="#000000" stroke-linecap="round" stroke-linejoin="round" stroke-width="1.5"></path>
  <path d="M9.629 5.679a6.725 6.725 0 0 1 9.071 5.867 2.252 2.252 0 0 0 -3.8 -1.138" fill="none" stroke="#000000" stroke-linecap="round" stroke-linejoin="round" stroke-width="1.5"></path>
  <path d="M5.908 10.408a2.237 2.237 0 0 0 -0.608 1.138 6.809 6.809 0 0 1 0.4 -1.906" fill="none" stroke="#000000" stroke-linecap="round" stroke-linejoin="round" stroke-width="1.5"></path>
  <path d="M5.25 12a2.27 2.27 0 0 1 0.046 -0.454c-0.011 0.154 -0.046 0.299 -0.046 0.454Z" fill="none" stroke="#000000" stroke-linecap="round" stroke-linejoin="round" stroke-width="1.5"></path>
  <path d="M18.75 12c0 -0.155 -0.035 -0.3 -0.046 -0.454a2.27 2.27 0 0 1 0.046 0.454Z" fill="none" stroke="#000000" stroke-linecap="round" stroke-linejoin="round" stroke-width="1.5"></path>
  <path d="M9 18.75a1.5 1.5 0 0 0 3 0v-3" fill="none" stroke="#000000" stroke-linecap="round" stroke-linejoin="round" stroke-width="1.5"></path>
</svg>