<svg xmlns="http://www.w3.org/2000/svg" fill="none" viewBox="0 0 24 24" id="Cleaning-Vacuum--Streamline-Ultimate">
  <desc>
    Cleaning Vacuum Streamline Icon: https://streamlinehq.com
  </desc>
  <path stroke="#000000" stroke-linecap="round" stroke-linejoin="round" d="M15.75 20.25h6l1.5 3h-9l1.5 -3Z" stroke-width="1.5"></path>
  <path stroke="#000000" stroke-linecap="round" stroke-linejoin="round" d="M9.75 15.75c0 -1.1935 -0.47411 -2.3381 -1.31802 -3.182 -0.84391 -0.8439 -1.98851 -1.318 -3.18198 -1.318 -1.19347 0 -2.33807 0.4741 -3.18198 1.318C1.22411 13.4119 0.75 14.5565 0.75 15.75v6c0 0.3978 0.158035 0.7794 0.43934 1.0607 0.2813 0.2813 0.66284 0.4393 1.06066 0.4393h6c0.39782 0 0.77936 -0.158 1.06066 -0.4393 0.2813 -0.2813 0.43934 -0.6629 0.43934 -1.0607v-6Z" stroke-width="1.5"></path>
  <path stroke="#000000" stroke-linecap="round" stroke-linejoin="round" d="M5.25 11.25V7.5c0 -0.99456 0.39509 -1.94839 1.09835 -2.65165S8.00544 3.75 9 3.75c0.99456 0 1.9484 0.39509 2.6517 1.09835C12.3549 5.55161 12.75 6.50544 12.75 7.5v6.75c0 0.3978 0.158 0.7794 0.4393 1.0607s0.6629 0.4393 1.0607 0.4393c0.3978 0 0.7794 -0.158 1.0607 -0.4393s0.4393 -0.6629 0.4393 -1.0607v-12c0 -0.39782 0.158 -0.77936 0.4393 -1.06066C16.4706 0.908035 16.8522 0.75 17.25 0.75c0.3978 0 0.7794 0.158035 1.0607 0.43934 0.2813 0.2813 0.4393 0.66284 0.4393 1.06066v18" stroke-width="1.5"></path>
  <path stroke="#000000" stroke-linecap="round" stroke-linejoin="round" d="M0.75 20.25h9" stroke-width="1.5"></path>
  <path stroke="#000000" d="M5.25 16.125c-0.20711 0 -0.375 -0.1679 -0.375 -0.375s0.16789 -0.375 0.375 -0.375" stroke-width="1.5"></path>
  <path stroke="#000000" d="M5.25 16.125c0.20711 0 0.375 -0.1679 0.375 -0.375s-0.16789 -0.375 -0.375 -0.375" stroke-width="1.5"></path>
</svg>