<svg xmlns="http://www.w3.org/2000/svg" viewBox="0 0 24 24" id="Cleanser-Scrubing-5--Streamline-Ultimate">
  <desc>
    Cleanser Scrubing 5 Streamline Icon: https://streamlinehq.com
  </desc>
  <defs></defs>
  <title>cleanser-scrubing-5</title>
  <path d="m21.028 3.093 -2.542 1.314 -6 0.529c-2.337 -0.056 -4.42 2.735 -6.572 5.257h7.161l-1.387 1.356a1.636 1.636 0 1 0 2.283 2.345l3.772 -3.7h1.971A8.445 8.445 0 0 0 23 8.879" fill="none" stroke="#000000" stroke-linecap="round" stroke-linejoin="round" stroke-width="1.5"></path>
  <path d="m15.115 8.2 -2.04 2" fill="none" stroke="#000000" stroke-linecap="round" stroke-linejoin="round" stroke-width="1.5"></path>
  <path d="M5.914 10.193H4.7a3.7 3.7 0 0 0 -3.7 3.7v3h22" fill="none" stroke="#000000" stroke-linecap="round" stroke-linejoin="round" stroke-width="1.5"></path>
  <path d="m1 16.892 0 4.015" fill="none" stroke="#000000" stroke-linecap="round" stroke-linejoin="round" stroke-width="1.5"></path>
  <path d="m4.667 16.892 0 4.015" fill="none" stroke="#000000" stroke-linecap="round" stroke-linejoin="round" stroke-width="1.5"></path>
  <path d="m8.333 16.892 0 4.015" fill="none" stroke="#000000" stroke-linecap="round" stroke-linejoin="round" stroke-width="1.5"></path>
  <path d="m12 16.892 0 4.015" fill="none" stroke="#000000" stroke-linecap="round" stroke-linejoin="round" stroke-width="1.5"></path>
  <path d="m15.667 17.117 0 3.79" fill="none" stroke="#000000" stroke-linecap="round" stroke-linejoin="round" stroke-width="1.5"></path>
  <path d="m19.333 16.892 0 4.015" fill="none" stroke="#000000" stroke-linecap="round" stroke-linejoin="round" stroke-width="1.5"></path>
  <path d="m23 16.892 0 4.015" fill="none" stroke="#000000" stroke-linecap="round" stroke-linejoin="round" stroke-width="1.5"></path>
</svg>