<svg viewBox="0 0 24 24" xmlns="http://www.w3.org/2000/svg" id="Cleaning-Vacuum-1--Streamline-Ultimate">
  <desc>
    Cleaning Vacuum 1 Streamline Icon: https://streamlinehq.com
  </desc>
  <path d="m8.625 23.25 -7.5 0 1.5 -3 4.5 0 1.5 3z" fill="none" stroke="#000000" stroke-linecap="round" stroke-linejoin="round" stroke-width="1.5"></path>
  <path d="M4.875 20.25V3a2.25 2.25 0 0 1 4.5 0v10.5a2.25 2.25 0 0 0 2.25 2.25h0.75" fill="none" stroke="#000000" stroke-linecap="round" stroke-linejoin="round" stroke-width="1.5"></path>
  <path d="M21.375 17.653v-6.4a4.5 4.5 0 0 0 -9 0V21a0.75 0.75 0 0 0 0.75 0.75h4.152" fill="none" stroke="#000000" stroke-linecap="round" stroke-linejoin="round" stroke-width="1.5"></path>
  <path d="M16.875 20.25a3 3 0 1 0 6 0 3 3 0 1 0 -6 0Z" fill="none" stroke="#000000" stroke-linecap="round" stroke-linejoin="round" stroke-width="1.5"></path>
</svg>