<svg viewBox="0 0 24 24" xmlns="http://www.w3.org/2000/svg" id="Family-Baby-Change-Diaper--Streamline-Ultimate">
  <desc>
    Family Baby Change Diaper Streamline Icon: https://streamlinehq.com
  </desc>
  <path d="M15.75 23.063h-1.5a3 3 0 0 1 -3 -3h-0.75a1.5 1.5 0 0 1 0 -3h0.75a3 3 0 0 1 3 3h1.5v-3a1.5 1.5 0 0 1 3 0v3a3 3 0 0 1 -3 3Z" fill="none" stroke="#000000" stroke-linecap="round" stroke-linejoin="round" stroke-width="1.5"></path>
  <path d="M18.75 20.813a2.25 2.25 0 1 0 4.5 0 2.25 2.25 0 1 0 -4.5 0Z" fill="none" stroke="#000000" stroke-linecap="round" stroke-linejoin="round" stroke-width="1.5"></path>
  <path d="M9.375 3.563a2.625 2.625 0 1 0 5.25 0 2.625 2.625 0 1 0 -5.25 0Z" fill="none" stroke="#000000" stroke-linecap="round" stroke-linejoin="round" stroke-width="1.5"></path>
  <path d="m0.75 13.313 5.621 -6.238a1.5 1.5 0 0 1 2.614 0.775c0.024 0.156 0.639 3.963 3.765 3.963a1.5 1.5 0 0 1 0 3 6.408 6.408 0 0 1 -5.843 -3.794A19.992 19.992 0 0 0 3 22.892v0.171" fill="none" stroke="#000000" stroke-linecap="round" stroke-linejoin="round" stroke-width="1.5"></path>
</svg>