<svg xmlns="http://www.w3.org/2000/svg" viewBox="0 0 24 24" id="Garbage-Bin-Throw-1--Streamline-Ultimate">
  <desc>
    Garbage Bin Throw 1 Streamline Icon: https://streamlinehq.com
  </desc>
  <g>
    <path d="M14.62 3.37a2.63 2.63 0 1 0 5.26 0 2.63 2.63 0 1 0 -5.26 0" fill="none" stroke="#000000" stroke-linecap="round" stroke-linejoin="round" stroke-width="1.5"></path>
    <path d="m17.25 16.5 0 5.25" fill="none" stroke="#000000" stroke-linecap="round" stroke-linejoin="round" stroke-width="1.5"></path>
    <path d="M11.12 14.69a6 6 0 0 0 3.13 -2.44v9.5a1.5 1.5 0 0 0 3 0 1.5 1.5 0 0 0 3 0V15a1.5 1.5 0 0 0 3 0v-3a4.49 4.49 0 0 0 -4.5 -4.5H16.1a4.5 4.5 0 0 0 -4 2.48c-0.76 1.52 -1.57 1.75 -1.92 1.87a1.45 1.45 0 0 0 -0.94 1.41 1.48 1.48 0 0 0 1.88 1.43Z" fill="none" stroke="#000000" stroke-linecap="round" stroke-linejoin="round" stroke-width="1.5"></path>
    <path d="m20.25 15 0 -3" fill="none" stroke="#000000" stroke-linecap="round" stroke-linejoin="round" stroke-width="1.5"></path>
    <path d="M3.75 11.25a1.5 1.5 0 1 0 3 0 1.5 1.5 0 1 0 -3 0" fill="none" stroke="#000000" stroke-linecap="round" stroke-linejoin="round" stroke-width="1.5"></path>
    <path d="M2.25 23.25a1.5 1.5 0 0 1 -1.5 -1.5v-6h7.5L7 22a1.5 1.5 0 0 1 -1.47 1.21Z" fill="none" stroke="#000000" stroke-linecap="round" stroke-linejoin="round" stroke-width="1.5"></path>
    <path d="M0.75 15.75 0.75 9" fill="none" stroke="#000000" stroke-linecap="round" stroke-linejoin="round" stroke-width="1.5"></path>
  </g>
</svg>